<mxfile modified="2022-10-28T00:20:30.322Z" host="Electron" agent="5.0 (Windows NT 10.0; Win64; x64) AppleWebKit/537.36 (KHTML, like Gecko) draw.io/20.3.0 Chrome/104.0.5112.114 Electron/20.1.3 Safari/537.36" etag="XqudazSsthmtHIhSrfpS" compressed="false" version="20.3.0" type="device">
  <diagram id="Pqqyhjjf1qJyDXPPMRDn" name="Information/Classification/Types">
    <mxGraphModel dx="2249" dy="998" grid="1" gridSize="10" guides="1" tooltips="1" connect="1" arrows="1" fold="1" page="1" pageScale="1" pageWidth="827" pageHeight="1169" math="0" shadow="0">
      <root>
        <mxCell id="Wcknbk3GZ0b5zgMWEFJH-0" />
        <mxCell id="Wcknbk3GZ0b5zgMWEFJH-1" parent="Wcknbk3GZ0b5zgMWEFJH-0" />
        <mxCell id="Wcknbk3GZ0b5zgMWEFJH-3" value="Sys Entities (Internal)" style="rounded=0;whiteSpace=wrap;html=1;" parent="Wcknbk3GZ0b5zgMWEFJH-1" vertex="1">
          <mxGeometry x="300" y="120" width="80" height="30" as="geometry" />
        </mxCell>
        <mxCell id="Wcknbk3GZ0b5zgMWEFJH-4" value="&amp;nbsp;Messages /&lt;br&gt;DTOs (ext)&lt;br&gt;" style="rounded=0;whiteSpace=wrap;html=1;" parent="Wcknbk3GZ0b5zgMWEFJH-1" vertex="1">
          <mxGeometry x="300" y="160" width="80" height="30" as="geometry" />
        </mxCell>
        <mxCell id="Wcknbk3GZ0b5zgMWEFJH-5" value="Validation" style="rounded=0;whiteSpace=wrap;html=1;" parent="Wcknbk3GZ0b5zgMWEFJH-1" vertex="1">
          <mxGeometry x="480" y="160" width="80" height="30" as="geometry" />
        </mxCell>
        <mxCell id="Wcknbk3GZ0b5zgMWEFJH-6" value="Documentation" style="rounded=0;whiteSpace=wrap;html=1;" parent="Wcknbk3GZ0b5zgMWEFJH-1" vertex="1">
          <mxGeometry x="660" y="160" width="80" height="30" as="geometry" />
        </mxCell>
        <mxCell id="ujYNcpe3rjXzj_1XCcdx-0" value="&lt;font style=&quot;font-size: 12px&quot;&gt;Diagram: Delivery - Information - Key Types to Manage&lt;/font&gt;" style="text;html=1;fontSize=24;fontStyle=2;verticalAlign=middle;align=left;shadow=0;glass=0;comic=0;opacity=30;" parent="Wcknbk3GZ0b5zgMWEFJH-1" vertex="1">
          <mxGeometry x="120" y="220" width="520" height="20" as="geometry" />
        </mxCell>
        <mxCell id="ujYNcpe3rjXzj_1XCcdx-1" value="Instructions&lt;br&gt;(Design)" style="rounded=0;whiteSpace=wrap;html=1;" parent="Wcknbk3GZ0b5zgMWEFJH-1" vertex="1">
          <mxGeometry x="210" y="160" width="80" height="30" as="geometry" />
        </mxCell>
        <mxCell id="LyOaPKfv8IbkXAdnjgy6-0" value="Endpoints (Urls)" style="rounded=0;whiteSpace=wrap;html=1;" parent="Wcknbk3GZ0b5zgMWEFJH-1" vertex="1">
          <mxGeometry x="300" y="80" width="80" height="30" as="geometry" />
        </mxCell>
        <mxCell id="LyOaPKfv8IbkXAdnjgy6-1" value="Definitions (Requirements)" style="rounded=0;whiteSpace=wrap;html=1;" parent="Wcknbk3GZ0b5zgMWEFJH-1" vertex="1">
          <mxGeometry x="120" y="40" width="80" height="30" as="geometry" />
        </mxCell>
        <mxCell id="LyOaPKfv8IbkXAdnjgy6-2" value="Stakeholder&lt;br&gt;Desires" style="rounded=0;whiteSpace=wrap;html=1;" parent="Wcknbk3GZ0b5zgMWEFJH-1" vertex="1">
          <mxGeometry x="120" y="120" width="80" height="30" as="geometry" />
        </mxCell>
        <mxCell id="LyOaPKfv8IbkXAdnjgy6-3" value="Managed WorkItems" style="rounded=0;whiteSpace=wrap;html=1;" parent="Wcknbk3GZ0b5zgMWEFJH-1" vertex="1">
          <mxGeometry x="120" y="160" width="80" height="30" as="geometry" />
        </mxCell>
        <mxCell id="LyOaPKfv8IbkXAdnjgy6-4" value="Post-Event Notifications" style="rounded=0;whiteSpace=wrap;html=1;" parent="Wcknbk3GZ0b5zgMWEFJH-1" vertex="1">
          <mxGeometry x="390" y="160" width="80" height="30" as="geometry" />
        </mxCell>
        <mxCell id="LyOaPKfv8IbkXAdnjgy6-5" value="Pre-Action Confirmations" style="rounded=0;whiteSpace=wrap;html=1;" parent="Wcknbk3GZ0b5zgMWEFJH-1" vertex="1">
          <mxGeometry x="390" y="120" width="80" height="30" as="geometry" />
        </mxCell>
        <mxCell id="LyOaPKfv8IbkXAdnjgy6-7" value="Examples" style="rounded=0;whiteSpace=wrap;html=1;" parent="Wcknbk3GZ0b5zgMWEFJH-1" vertex="1">
          <mxGeometry x="660" y="120" width="80" height="30" as="geometry" />
        </mxCell>
        <mxCell id="LyOaPKfv8IbkXAdnjgy6-8" value="Tests" style="rounded=0;whiteSpace=wrap;html=1;" parent="Wcknbk3GZ0b5zgMWEFJH-1" vertex="1">
          <mxGeometry x="570" y="160" width="80" height="30" as="geometry" />
        </mxCell>
        <mxCell id="CxZLBzcH7SQRxZ_VPuwt-0" value="Instruction Messages" style="rounded=0;whiteSpace=wrap;html=1;" vertex="1" parent="Wcknbk3GZ0b5zgMWEFJH-1">
          <mxGeometry x="390" y="80" width="80" height="30" as="geometry" />
        </mxCell>
        <mxCell id="CxZLBzcH7SQRxZ_VPuwt-1" value="Objectives&lt;br&gt;Registry" style="rounded=0;whiteSpace=wrap;html=1;" vertex="1" parent="Wcknbk3GZ0b5zgMWEFJH-1">
          <mxGeometry x="-60" y="80" width="80" height="30" as="geometry" />
        </mxCell>
        <mxCell id="CxZLBzcH7SQRxZ_VPuwt-2" value="Scope Registry" style="rounded=0;whiteSpace=wrap;html=1;" vertex="1" parent="Wcknbk3GZ0b5zgMWEFJH-1">
          <mxGeometry x="30" y="80" width="80" height="30" as="geometry" />
        </mxCell>
        <mxCell id="CxZLBzcH7SQRxZ_VPuwt-3" value="Issues" style="rounded=0;whiteSpace=wrap;html=1;" vertex="1" parent="Wcknbk3GZ0b5zgMWEFJH-1">
          <mxGeometry x="120" y="80" width="80" height="30" as="geometry" />
        </mxCell>
        <mxCell id="CxZLBzcH7SQRxZ_VPuwt-4" value="Milestone Registry" style="rounded=0;whiteSpace=wrap;html=1;" vertex="1" parent="Wcknbk3GZ0b5zgMWEFJH-1">
          <mxGeometry x="-60" y="120" width="80" height="30" as="geometry" />
        </mxCell>
        <mxCell id="CxZLBzcH7SQRxZ_VPuwt-5" value="Resources Registry" style="rounded=0;whiteSpace=wrap;html=1;" vertex="1" parent="Wcknbk3GZ0b5zgMWEFJH-1">
          <mxGeometry x="-60" y="160" width="80" height="30" as="geometry" />
        </mxCell>
        <mxCell id="CxZLBzcH7SQRxZ_VPuwt-6" value="Capabilities Registry" style="rounded=0;whiteSpace=wrap;html=1;" vertex="1" parent="Wcknbk3GZ0b5zgMWEFJH-1">
          <mxGeometry x="-60" y="200" width="80" height="30" as="geometry" />
        </mxCell>
        <mxCell id="CxZLBzcH7SQRxZ_VPuwt-7" value="Resources Registry" style="rounded=0;whiteSpace=wrap;html=1;" vertex="1" parent="Wcknbk3GZ0b5zgMWEFJH-1">
          <mxGeometry x="-60" y="240" width="80" height="30" as="geometry" />
        </mxCell>
        <mxCell id="CxZLBzcH7SQRxZ_VPuwt-8" value="Delivery Registry" style="rounded=0;whiteSpace=wrap;html=1;" vertex="1" parent="Wcknbk3GZ0b5zgMWEFJH-1">
          <mxGeometry x="30" y="120" width="80" height="30" as="geometry" />
        </mxCell>
        <mxCell id="CxZLBzcH7SQRxZ_VPuwt-9" value="Risk Registry" style="rounded=0;whiteSpace=wrap;html=1;" vertex="1" parent="Wcknbk3GZ0b5zgMWEFJH-1">
          <mxGeometry x="30" y="160" width="80" height="30" as="geometry" />
        </mxCell>
      </root>
    </mxGraphModel>
  </diagram>
</mxfile>
